<svg xmlns="http://www.w3.org/2000/svg" viewBox="0 0 1024 1024" fill="#000">
  <path d="M896 25.6H128c-12.8 0-25.6 12.8-25.6 25.6s12.8 25.6 25.6 25.6h768c12.8 0 25.6-12.8 25.6-25.6s-12.8-25.6-25.6-25.6zM529.92 135.68c-2.56-2.56-5.12-2.56-7.68-5.12h-2.56c0-2.56-5.12-2.56-7.68-2.56-2.56 0-7.68 0-10.24 2.56h-2.56c-2.56 0-5.12 2.56-7.68 5.12L145.92 483.84c-10.24 10.24-10.24 25.6 0 35.84s25.6 10.24 35.84 0L486.4 215.04V972.8c0 12.8 12.8 25.6 25.6 25.6s25.6-12.8 25.6-25.6V215.04l304.64 304.64c10.24 10.24 25.6 10.24 35.84 0s10.24-25.6 0-35.84L529.92 135.68z" />
</svg>
