<svg xmlns="http://www.w3.org/2000/svg" viewBox="0 0 1024 1024" fill="currentColor">
  <path d="M884.88213333 423.14133333H646.976c92.18666667-340.46506667-63.5168-357.8528-63.5168-357.8528-65.99146667 0-52.31146667 52.1792-57.29706667 60.88106667 0 166.5024-176.84906667 296.96746667-176.84906666 296.96746667v472.17173333c0 46.608 63.5168 63.3952 88.4352 63.3952H795.2c33.63946667 0 61.03573333-88.22293333 61.03573333-88.22293333 88.42986667-300.70506667 88.42986667-390.17493333 88.42986667-390.17493334 0.00106667-62.13013333-59.7824-57.16373333-59.7824-57.16373333z m0 0zM251.67253333 423.29706667H109.216c-29.41973333 0-29.87306667 28.896-29.87306667 28.896l29.41973334 476.20373333c0 30.3104 30.3616 30.3104 30.3616 30.3104h123.2992c25.6864 0 25.456-20.0512 25.456-20.0512V459.40693333c0-36.5728-36.208-36.11093333-36.208-36.11093333z m0 0z" />
</svg>
